<svg width="535" height="681" viewBox="0 0 535 681" fill="none" xmlns="http://www.w3.org/2000/svg">
<path d="M46.8 211.08C38.88 211.08 31.76 209.24 25.44 205.56C19.2 201.8 14.28 196.64 10.68 190.08C7.16 183.44 5.4 175.96 5.4 167.64C5.4 159.32 7.16 151.88 10.68 145.32C14.2 138.68 19.04 133.52 25.2 129.84C31.44 126.08 38.48 124.2 46.32 124.2C54.64 124.2 62.12 126.28 68.76 130.44C75.48 134.52 80.28 140.08 83.16 147.12L73.2 148.68C70.64 143.96 67 140.28 62.28 137.64C57.64 134.92 52.48 133.56 46.8 133.56C40.8 133.56 35.48 135 30.84 137.88C26.2 140.76 22.56 144.8 19.92 150C17.36 155.12 16.08 161 16.08 167.64C16.08 174.36 17.36 180.32 19.92 185.52C22.56 190.64 26.2 194.64 30.84 197.52C35.56 200.32 40.96 201.72 47.04 201.72C53.04 201.72 58.36 200.36 63 197.64C67.64 194.92 71.24 191.08 73.8 186.12L83.76 187.68C80.8 194.88 75.96 200.6 69.24 204.84C62.6 209 55.12 211.08 46.8 211.08ZM122.161 210H111.961V134.76H81.9609V125.4H152.281V134.76H122.161V210ZM221.057 210H210.137L202.697 189.72H159.977L152.177 210H141.497L174.257 125.4H189.497L221.057 210ZM180.857 135.36L163.577 180.36H199.217L182.657 135.36H180.857ZM283.14 162.48V125.4H293.34V210H283.14V171.84H237.9V210H227.7V125.4H237.9V162.48H283.14ZM307.744 210V125.4H317.944V154.92H335.104C340.864 154.92 345.984 156.12 350.464 158.52C355.024 160.84 358.584 164.08 361.144 168.24C363.704 172.4 364.984 177.12 364.984 182.4C364.984 187.76 363.704 192.52 361.144 196.68C358.584 200.84 355.024 204.12 350.464 206.52C345.984 208.84 340.864 210 335.104 210H307.744ZM335.104 200.52C340.784 200.52 345.424 198.84 349.024 195.48C352.624 192.12 354.424 187.76 354.424 182.4C354.424 177.04 352.624 172.68 349.024 169.32C345.424 165.96 340.784 164.28 335.104 164.28H317.944V200.52H335.104ZM42 330H31.8V254.76H1.8V245.4H72.12V254.76H42V330ZM131.905 330H78.7453V245.4H130.705V254.76H88.9453V282.72H126.865V291.96H88.9453V320.52H131.905V330ZM153.986 330H143.906V245.4H161.306L187.946 315.36H189.506L216.266 245.4H233.306V330H223.226V257.04H221.666L193.706 330H183.386L155.546 257.04H153.986V330ZM294.087 286.32L336.087 330H322.287L285.687 291.6H281.967V330H271.767V245.4H281.967V282H285.447L320.127 245.4H333.087L294.087 286.32ZM373.781 330H363.581V254.76H333.581V245.4H403.901V254.76H373.781V330ZM446.463 331.2C438.303 331.2 430.983 329.36 424.503 325.68C418.023 321.92 412.983 316.76 409.383 310.2C405.783 303.56 403.983 296.04 403.983 287.64C403.983 279.24 405.783 271.76 409.383 265.2C413.063 258.56 418.103 253.4 424.503 249.72C430.983 246.04 438.303 244.2 446.463 244.2C454.623 244.2 461.903 246.04 468.303 249.72C474.783 253.4 479.823 258.56 483.423 265.2C487.023 271.76 488.823 279.24 488.823 287.64C488.823 296.04 487.023 303.56 483.423 310.2C479.823 316.76 474.783 321.92 468.303 325.68C461.903 329.36 454.623 331.2 446.463 331.2ZM446.463 321.72C452.703 321.72 458.223 320.32 463.023 317.52C467.823 314.64 471.543 310.64 474.183 305.52C476.903 300.32 478.263 294.36 478.263 287.64C478.263 281 476.903 275.12 474.183 270C471.543 264.8 467.823 260.76 463.023 257.88C458.223 255 452.703 253.56 446.463 253.56C440.223 253.56 434.703 255 429.903 257.88C425.103 260.76 421.343 264.8 418.623 270C415.983 275.12 414.663 281 414.663 287.64C414.663 294.36 415.983 300.32 418.623 305.52C421.343 310.64 425.103 314.64 429.903 317.52C434.703 320.32 440.223 321.72 446.463 321.72ZM64.32 401.52V365.4H76.68V450H64.32V412.92H21.6V450H9.24V365.4H21.6V401.52H64.32ZM145.298 450H90.3384V365.4H144.098V376.8H102.698V401.88H140.258V412.8H102.698V438.6H145.298V450ZM210.909 450H198.549V376.8H169.149V365.4H240.429V376.8H210.909V450ZM310.64 450H297.44L290.48 430.8H249.08L241.88 450H228.92L261.56 365.4H279.08L310.64 450ZM269.12 377.88L253.4 419.52H286.4L271.28 377.88H269.12ZM371.489 450H316.529V365.4H370.289V376.8H328.889V401.88H366.449V412.8H328.889V438.6H371.489V450ZM416.705 450H404.345V376.8H374.945V365.4H446.225V376.8H416.705V450ZM55.08 526.8C59.72 528.16 63.36 530.64 66 534.24C68.72 537.84 70.08 542.08 70.08 546.96C70.08 551.36 68.92 555.32 66.6 558.84C64.28 562.36 61.04 565.12 56.88 567.12C52.8 569.04 48.12 570 42.84 570H9.6V485.4H40.8C46.08 485.4 50.76 486.36 54.84 488.28C59 490.2 62.2 492.92 64.44 496.44C66.76 499.88 67.92 503.84 67.92 508.32C67.92 512.72 66.76 516.56 64.44 519.84C62.12 523.12 59 525.44 55.08 526.8ZM19.8 494.64V522.96H40.8C45.68 522.96 49.64 521.68 52.68 519.12C55.8 516.48 57.36 513.04 57.36 508.8C57.36 504.56 55.8 501.16 52.68 498.6C49.64 495.96 45.68 494.64 40.8 494.64H19.8ZM42.84 560.76C47.8 560.76 51.8 559.44 54.84 556.8C57.96 554.08 59.52 550.6 59.52 546.36C59.52 542.12 57.96 538.68 54.84 536.04C51.8 533.32 47.8 531.96 42.84 531.96H19.8V560.76H42.84ZM133.65 570H123.45V494.76H93.45V485.4H163.77V494.76H133.65V570ZM206.332 571.2C198.172 571.2 190.852 569.36 184.372 565.68C177.892 561.92 172.852 556.76 169.252 550.2C165.652 543.56 163.852 536.04 163.852 527.64C163.852 519.24 165.652 511.76 169.252 505.2C172.932 498.56 177.972 493.4 184.372 489.72C190.852 486.04 198.172 484.2 206.332 484.2C214.492 484.2 221.772 486.04 228.172 489.72C234.652 493.4 239.692 498.56 243.292 505.2C246.892 511.76 248.692 519.24 248.692 527.64C248.692 536.04 246.892 543.56 243.292 550.2C239.692 556.76 234.652 561.92 228.172 565.68C221.772 569.36 214.492 571.2 206.332 571.2ZM206.332 561.72C212.572 561.72 218.092 560.32 222.892 557.52C227.692 554.64 231.412 550.64 234.052 545.52C236.772 540.32 238.132 534.36 238.132 527.64C238.132 521 236.772 515.12 234.052 510C231.412 504.8 227.692 500.76 222.892 497.88C218.092 495 212.572 493.56 206.332 493.56C200.092 493.56 194.572 495 189.772 497.88C184.972 500.76 181.212 504.8 178.492 510C175.852 515.12 174.532 521 174.532 527.64C174.532 534.36 175.852 540.32 178.492 545.52C181.212 550.64 184.972 554.64 189.772 557.52C194.572 560.32 200.092 561.72 206.332 561.72ZM267.272 485.4H318.872V570H308.672V494.76H276.752L273.632 547.68C273.232 555.28 271.232 561.08 267.632 565.08C264.112 569 259.232 570.96 252.992 570.96C250.912 570.96 248.952 570.72 247.112 570.24L246.272 560.52C248.592 560.76 250.752 560.88 252.752 560.88C256.272 560.88 258.872 559.8 260.552 557.64C262.232 555.48 263.232 551.96 263.552 547.08L267.272 485.4ZM343.495 570H333.295V485.4H398.335V570H388.135V494.76H343.495V570ZM465.913 570H412.753V485.4H464.713V494.76H422.953V522.72H460.873V531.96H422.953V560.52H465.913V570Z" fill="#0F0F0F"/>
<path d="M12.952 644H11.44V631.31H14.05L18.046 641.804H18.28L22.294 631.31H24.85V644H23.338V633.056H23.104L18.91 644H17.362L13.186 633.056H12.952V644ZM30.3269 634.586C31.4309 634.586 32.3009 634.958 32.9369 635.702C33.5849 636.434 33.9089 637.478 33.9089 638.834V644H32.9369L32.5409 642.542C31.8089 643.634 30.7889 644.18 29.4809 644.18C28.5449 644.18 27.7769 643.91 27.1769 643.37C26.5889 642.83 26.2949 642.134 26.2949 641.282C26.2949 640.406 26.6369 639.71 27.3209 639.194C28.0169 638.666 29.0129 638.402 30.3089 638.402H32.4689C32.4209 637.562 32.2049 636.926 31.8209 636.494C31.4369 636.05 30.9209 635.828 30.2729 635.828C29.8049 635.828 29.3789 635.936 28.9949 636.152C28.6229 636.368 28.3349 636.668 28.1309 637.052L26.7809 636.836C27.0449 636.14 27.4949 635.594 28.1309 635.198C28.7789 634.79 29.5109 634.586 30.3269 634.586ZM29.7509 642.938C30.5549 642.938 31.2089 642.674 31.7129 642.146C32.2169 641.618 32.4689 640.862 32.4689 639.878V639.644H30.3269C28.6109 639.644 27.7529 640.178 27.7529 641.246C27.7529 641.762 27.9329 642.176 28.2929 642.488C28.6529 642.788 29.1389 642.938 29.7509 642.938ZM39.0171 644H37.5771V636.08H34.3731V634.766H42.2211V636.08H39.0171V644ZM48.9637 639.122C49.4437 639.302 49.8277 639.596 50.1157 640.004C50.4037 640.4 50.5477 640.862 50.5477 641.39C50.5477 641.894 50.4097 642.344 50.1337 642.74C49.8577 643.136 49.4737 643.448 48.9817 643.676C48.4897 643.892 47.9317 644 47.3077 644H43.1137V634.766H47.1817C48.0697 634.766 48.7957 635 49.3597 635.468C49.9357 635.924 50.2237 636.506 50.2237 637.214C50.2237 637.646 50.1097 638.024 49.8817 638.348C49.6657 638.672 49.3597 638.93 48.9637 639.122ZM44.5537 636.026V638.564H47.1817C47.6497 638.564 48.0277 638.45 48.3157 638.222C48.6157 637.982 48.7657 637.676 48.7657 637.304C48.7657 636.932 48.6157 636.626 48.3157 636.386C48.0277 636.146 47.6497 636.026 47.1817 636.026H44.5537ZM47.3077 642.722C47.8357 642.722 48.2617 642.59 48.5857 642.326C48.9217 642.05 49.0897 641.696 49.0897 641.264C49.0897 640.832 48.9217 640.484 48.5857 640.22C48.2617 639.956 47.8357 639.824 47.3077 639.824H44.5537V642.722H47.3077ZM60.7054 639.356C60.7054 639.512 60.6994 639.662 60.6874 639.806H52.8754C52.9594 640.73 53.3014 641.468 53.9014 642.02C54.5014 642.572 55.2634 642.848 56.1874 642.848C56.8354 642.848 57.4114 642.716 57.9154 642.452C58.4194 642.188 58.7914 641.84 59.0314 641.408L60.3814 641.624C60.0094 642.452 59.4394 643.088 58.6714 643.532C57.9034 643.964 57.0514 644.18 56.1154 644.18C55.1914 644.18 54.3694 643.976 53.6494 643.568C52.9294 643.16 52.3654 642.59 51.9574 641.858C51.5614 641.126 51.3634 640.298 51.3634 639.374C51.3634 638.45 51.5614 637.628 51.9574 636.908C52.3534 636.176 52.9054 635.606 53.6134 635.198C54.3214 634.79 55.1254 634.586 56.0254 634.586C56.9254 634.586 57.7294 634.79 58.4374 635.198C59.1454 635.606 59.6974 636.176 60.0934 636.908C60.5014 637.628 60.7054 638.444 60.7054 639.356ZM56.0254 635.882C55.2334 635.882 54.5554 636.128 53.9914 636.62C53.4394 637.1 53.0854 637.748 52.9294 638.564H59.1394C58.9954 637.76 58.6414 637.112 58.0774 636.62C57.5254 636.128 56.8414 635.882 56.0254 635.882ZM64.015 644H61.783V634.766H63.187V642.47H63.439L67.507 634.766H69.739V644H68.335V636.296H68.101L64.015 644ZM65.761 633.452C65.029 633.452 64.417 633.26 63.925 632.876C63.445 632.492 63.151 631.91 63.043 631.13H64.267C64.339 631.526 64.501 631.826 64.753 632.03C65.005 632.234 65.341 632.336 65.761 632.336C66.181 632.336 66.517 632.234 66.769 632.03C67.033 631.826 67.195 631.526 67.255 631.13H68.479C68.383 631.91 68.089 632.492 67.597 632.876C67.105 633.26 66.493 633.452 65.761 633.452ZM76.8358 644H75.3238V631.31H77.9338L81.9298 641.804H82.1638L86.1778 631.31H88.7338V644H87.2218V633.056H86.9878L82.7938 644H81.2458L77.0698 633.056H76.8358V644ZM94.2107 634.586C95.3147 634.586 96.1847 634.958 96.8207 635.702C97.4687 636.434 97.7927 637.478 97.7927 638.834V644H96.8207L96.4247 642.542C95.6927 643.634 94.6727 644.18 93.3647 644.18C92.4287 644.18 91.6607 643.91 91.0607 643.37C90.4727 642.83 90.1787 642.134 90.1787 641.282C90.1787 640.406 90.5207 639.71 91.2047 639.194C91.9007 638.666 92.8967 638.402 94.1927 638.402H96.3527C96.3047 637.562 96.0887 636.926 95.7047 636.494C95.3207 636.05 94.8047 635.828 94.1567 635.828C93.6887 635.828 93.2627 635.936 92.8787 636.152C92.5067 636.368 92.2187 636.668 92.0147 637.052L90.6647 636.836C90.9287 636.14 91.3787 635.594 92.0147 635.198C92.6627 634.79 93.3947 634.586 94.2107 634.586ZM93.6347 642.938C94.4387 642.938 95.0927 642.674 95.5967 642.146C96.1007 641.618 96.3527 640.862 96.3527 639.878V639.644H94.2107C92.4947 639.644 91.6367 640.178 91.6367 641.246C91.6367 641.762 91.8167 642.176 92.1767 642.488C92.5367 642.788 93.0227 642.938 93.6347 642.938ZM103.721 644.18C102.797 644.18 101.975 643.976 101.255 643.568C100.535 643.16 99.9705 642.59 99.5625 641.858C99.1665 641.126 98.9685 640.298 98.9685 639.374C98.9685 638.45 99.1665 637.628 99.5625 636.908C99.9705 636.176 100.535 635.606 101.255 635.198C101.987 634.79 102.809 634.586 103.721 634.586C104.669 634.586 105.527 634.814 106.295 635.27C107.063 635.714 107.627 636.356 107.987 637.196L106.619 637.43C106.391 636.974 106.025 636.608 105.521 636.332C105.017 636.044 104.447 635.9 103.811 635.9C103.163 635.9 102.587 636.044 102.083 636.332C101.579 636.62 101.183 637.028 100.895 637.556C100.619 638.084 100.481 638.69 100.481 639.374C100.481 640.418 100.787 641.258 101.399 641.894C102.011 642.53 102.815 642.848 103.811 642.848C104.483 642.848 105.077 642.698 105.593 642.398C106.121 642.086 106.493 641.69 106.709 641.21L108.059 641.444C107.711 642.32 107.141 642.998 106.349 643.478C105.569 643.946 104.693 644.18 103.721 644.18ZM110.001 634.766H116.211V644H114.771V636.08H111.333L111.027 640.94C110.967 641.972 110.703 642.758 110.235 643.298C109.779 643.826 109.155 644.09 108.363 644.09C108.147 644.09 107.913 644.072 107.661 644.036L107.535 642.65C107.691 642.662 107.889 642.668 108.129 642.668C108.657 642.668 109.023 642.548 109.227 642.308C109.431 642.068 109.557 641.624 109.605 640.976L110.001 634.766ZM122.268 644.18C121.344 644.18 120.516 643.976 119.784 643.568C119.052 643.16 118.482 642.59 118.074 641.858C117.666 641.126 117.462 640.298 117.462 639.374C117.462 638.45 117.666 637.628 118.074 636.908C118.482 636.176 119.052 635.606 119.784 635.198C120.516 634.79 121.344 634.586 122.268 634.586C123.192 634.586 124.02 634.79 124.752 635.198C125.496 635.606 126.072 636.176 126.48 636.908C126.888 637.628 127.092 638.45 127.092 639.374C127.092 640.298 126.888 641.126 126.48 641.858C126.072 642.59 125.502 643.16 124.77 643.568C124.038 643.976 123.204 644.18 122.268 644.18ZM122.268 642.848C123.252 642.848 124.05 642.53 124.662 641.894C125.274 641.246 125.58 640.406 125.58 639.374C125.58 638.702 125.442 638.102 125.166 637.574C124.89 637.046 124.5 636.638 123.996 636.35C123.492 636.05 122.916 635.9 122.268 635.9C121.62 635.9 121.044 636.05 120.54 636.35C120.048 636.638 119.664 637.046 119.388 637.574C119.112 638.102 118.974 638.702 118.974 639.374C118.974 640.058 119.112 640.664 119.388 641.192C119.664 641.72 120.048 642.128 120.54 642.416C121.044 642.704 121.62 642.848 122.268 642.848ZM134.206 639.122C134.686 639.302 135.07 639.596 135.358 640.004C135.646 640.4 135.79 640.862 135.79 641.39C135.79 641.894 135.652 642.344 135.376 642.74C135.1 643.136 134.716 643.448 134.224 643.676C133.732 643.892 133.174 644 132.55 644H128.356V634.766H132.424C133.312 634.766 134.038 635 134.602 635.468C135.178 635.924 135.466 636.506 135.466 637.214C135.466 637.646 135.352 638.024 135.124 638.348C134.908 638.672 134.602 638.93 134.206 639.122ZM129.796 636.026V638.564H132.424C132.892 638.564 133.27 638.45 133.558 638.222C133.858 637.982 134.008 637.676 134.008 637.304C134.008 636.932 133.858 636.626 133.558 636.386C133.27 636.146 132.892 636.026 132.424 636.026H129.796ZM132.55 642.722C133.078 642.722 133.504 642.59 133.828 642.326C134.164 642.05 134.332 641.696 134.332 641.264C134.332 640.832 134.164 640.484 133.828 640.22C133.504 639.956 133.078 639.824 132.55 639.824H129.796V642.722H132.55Z" fill="#0F0F0F"/>
<path d="M14.04 58.404H5.4L11.232 34.86H17.928L14.04 58.404ZM29.592 58.404H20.952L26.784 34.86H33.48L29.592 58.404Z" fill="#0F0F0F"/>
<path d="M520.96 622.596L529.6 622.596L523.768 646.14L517.072 646.14L520.96 622.596ZM505.408 622.596L514.048 622.596L508.216 646.14L501.52 646.14L505.408 622.596Z" fill="#0F0F0F"/>
</svg>
